<?xml version="1.0" standalone="no"?><!DOCTYPE svg PUBLIC "-//W3C//DTD SVG 1.1//EN"
    "http://www.w3.org/Graphics/SVG/1.1/DTD/svg11.dtd">
<svg xmlns:xlink="http://www.w3.org/1999/xlink" style="" class="icon"
    height="100"
    p-id="6270"
    t="1560678755178"
    version="1.1" viewBox="0 0 1024 1024"
    width="100" xmlns="http://www.w3.org/2000/svg">
    <defs>
        <style type="text/css"></style>
    </defs>
    <path
        d="M1 102h1022a1 1 0 0 1 1 1v134.533a1 1 0 0 1-1 1H1a1 1 0 0 1-1-1V103a1 1 0 0 1 1-1z m0 341.333h1022a1 1 0 0 1 1 1v134.534a1 1 0 0 1-1 1H1a1 1 0 0 1-1-1V444.333a1 1 0 0 1 1-1z m0 341.334h1022a1 1 0 0 1 1 1V920.2a1 1 0 0 1-1 1H1a1 1 0 0 1-1-1V785.667a1 1 0 0 1 1-1z"
        p-id="6271"></path>
</svg>